<svg width="187" height="187" viewBox="0 0 187 187" fill="none" xmlns="http://www.w3.org/2000/svg">
<rect y="-0.00576019" width="187" height="187" rx="40" fill="#1A1A1A"/>
<path d="M48.1303 41.598C46.1328 41.598 44.2093 42.3748 42.8037 43.7804C41.361 45.1861 40.5842 47.1096 40.5842 49.0701V137.848C40.5842 138.847 40.7692 139.808 41.1391 140.733C41.509 141.658 42.0639 142.472 42.7667 143.174C43.4695 143.877 44.2833 144.432 45.2081 144.802C46.1328 145.172 47.0946 145.357 48.0933 145.357C50.0908 145.357 52.0144 144.58 53.42 143.174C54.8257 141.769 55.6395 139.882 55.6395 137.885V49.0701C55.6395 47.0726 54.8626 45.1861 53.42 43.7804C52.0144 42.3748 50.0908 41.598 48.0933 41.598H48.1303Z" fill="#FFFFEB"/>
<path d="M93.4069 58.5766C92.4081 58.5766 91.4464 58.7615 90.5216 59.1314C89.5968 59.5014 88.783 60.0562 88.0802 60.759C87.3774 61.4619 86.8225 62.2757 86.4526 63.2004C86.0827 64.1252 85.8608 65.0869 85.8608 66.0487V120.166C85.8608 122.164 86.6376 124.05 88.0802 125.456C89.4859 126.861 91.4094 127.638 93.4069 127.638C95.4044 127.638 97.3279 126.861 98.7336 125.456C100.139 124.05 100.953 122.164 100.953 120.166V66.0487C100.953 64.0512 100.176 62.1647 98.7336 60.759C97.3279 59.3534 95.4044 58.5766 93.4069 58.5766Z" fill="#FFFFEB"/>
<path d="M70.7647 89.1309C68.7672 89.1309 66.8437 89.9077 65.4381 91.3134C64.0324 92.719 63.2186 94.6056 63.2186 96.6031V127.453C63.2186 129.451 63.9954 131.337 65.4381 132.743C66.8437 134.149 68.7672 134.925 70.7647 134.925C72.7622 134.925 74.6858 134.149 76.0914 132.743C77.497 131.337 78.3108 129.451 78.3108 127.453V96.6031C78.3108 94.6056 77.534 92.719 76.0914 91.3134C74.6858 89.9077 72.7622 89.1309 70.7647 89.1309Z" fill="#FFFFEB"/>
<path d="M138.686 41.598C137.687 41.598 136.725 41.7829 135.8 42.1528C134.876 42.5227 134.062 43.0776 133.359 43.7804C132.656 44.4832 132.101 45.297 131.731 46.2218C131.361 47.1466 131.14 48.1083 131.14 49.0701V137.848C131.14 139.845 131.916 141.732 133.359 143.137C134.765 144.543 136.688 145.32 138.686 145.32C140.683 145.32 142.607 144.543 144.012 143.137C145.418 141.732 146.232 139.845 146.232 137.848V49.0701C146.232 47.0726 145.455 45.1861 144.012 43.7804C142.607 42.3748 140.683 41.598 138.686 41.598Z" fill="#FFFFEB"/>
<path d="M116.043 89.1309C114.046 89.1309 112.122 89.9077 110.717 91.3134C109.311 92.719 108.497 94.6056 108.497 96.6031V127.453C108.497 129.451 109.274 131.337 110.717 132.743C112.122 134.149 114.046 134.925 116.043 134.925C118.041 134.925 119.964 134.149 121.37 132.743C122.776 131.337 123.59 129.451 123.59 127.453V96.6031C123.59 94.6056 122.813 92.719 121.37 91.3134C119.964 89.9077 118.041 89.1309 116.043 89.1309Z" fill="#FFFFEB"/>
</svg>
